<mxfile host="app.diagrams.net" modified="2023-03-21T07:19:16.890Z" agent="5.0 (Windows NT 10.0; Win64; x64) AppleWebKit/537.36 (KHTML, like Gecko) Chrome/111.0.0.0 Safari/537.36 Edg/111.0.1661.44" etag="MtuvRCd5wzF7Wb_Kya06" version="21.0.8" type="github">
  <diagram name="第 1 页" id="Vg_olY-b5qjW95F9NREL">
    <mxGraphModel dx="1377" dy="788" grid="1" gridSize="10" guides="1" tooltips="1" connect="1" arrows="1" fold="1" page="1" pageScale="1" pageWidth="827" pageHeight="1169" math="0" shadow="0">
      <root>
        <mxCell id="0" />
        <mxCell id="1" parent="0" />
        <mxCell id="vQlOnlbCmahZ4878dEuq-1" value="" style="rounded=1;whiteSpace=wrap;html=1;" vertex="1" parent="1">
          <mxGeometry x="310" y="150" width="120" height="60" as="geometry" />
        </mxCell>
      </root>
    </mxGraphModel>
  </diagram>
</mxfile>
